<?xml version="1.0" encoding="utf-8"?>
<!-- Generator: Adobe Illustrator 23.1.0, SVG Export Plug-In . SVG Version: 6.00 Build 0)  -->
<svg version="1.1" id="Capa_1" xmlns="http://www.w3.org/2000/svg" xmlns:xlink="http://www.w3.org/1999/xlink" x="0px" y="0px"
	 viewBox="0 0 512 512" style="enable-background:new 0 0 512 512;" xml:space="preserve">
<style type="text/css">
	.st0{fill:#85BCF9;}
	.st1{fill:#69A3E8;}
	.st2{fill:#F9F6F9;}
	.st3{fill:#DDDAEC;}
	.st4{fill:none;stroke:#000000;stroke-width:16;stroke-linecap:round;stroke-linejoin:round;stroke-miterlimit:10;}
	.st5{fill:#FF4343;}
</style>
<g>
	<g>
		<path class="st0" d="M115.1,7.5c-18,0-34.4,7.3-46.2,19.1C57.1,38.5,49.8,54.8,49.8,72.9v366.3l7.5-1.2l15.1-2.4l7.7-1.2l7.9-1.2
			l27.2-4.3h0l110.5-17.5l94.6-15l94.6-15l47.3-7.5h0V7.5H115.1z"/>
		<path class="st1" d="M462.2,373.8H115.1c-36.1,0-65.4,29.3-65.4,65.4c0,36.1,29.3,65.4,65.4,65.4h347.1V373.8z"/>
		<path class="st0" d="M429.1,403.8h33.1v70.7h-33.1V403.8z"/>
		<path class="st1" d="M115.1,428.8L88,433.1l-7.9,1.2l-7.7,1.2l-15.1,2.4l-7.5,1.2h0V72.9c0-18.1,7.3-34.4,19.2-46.2
			C80.8,14.8,97.1,7.5,115.1,7.5V15V428.8z"/>
		<path class="st2" d="M115.1,474.5c-19.5,0-35.4-15.9-35.4-35.4s15.9-35.4,35.4-35.4h314v70.7L115.1,474.5z"/>
	</g>
	<path d="M461.3,77.2c0.3,0,0.6,0.1,0.9,0.1c4.1,0,7.5-3.4,7.5-7.5V7.5c0-4.2-3.4-7.5-7.5-7.5H115.2C74.9,0,42.3,32.6,42.3,72.9
		v366.3c0,40.3,32.6,72.9,72.9,72.9H430c20,0,32.2,0,32.2,0c4.2,0,7.5-3.4,7.5-7.5V99.8c0-4.1-3.3-7.5-7.5-7.5c-0.3,0-0.6,0-0.9,0.1
		c-3.8,0.4-6.6,3.9-6.6,7.7v266.2c0,0,0,0,0,0H115.1c-23.5,0-44.5,11.2-57.8,28.6c0,0,0,0,0,0v-322c0-29.4,21.9-54.6,50.4-57.4
		c1.9-0.2,7.5-0.5,7.5-0.5v0c2.2,0,4.6,0,6.1,0c0.9,0,1.4,0,1.4,0h332.1l0,0v54.4C454.7,73.3,457.5,76.7,461.3,77.2z M115.1,381.3
		h339.6c0,0,0,0,0,0v15l0,0H130.4c-3.8,0-7.3,2.8-7.7,6.6c0,0.3-0.1,0.6-0.1,0.9c0,4.2,3.4,7.5,7.5,7.5h291.5c0,0,0,0,0,0V467
		c0,0,0,0,0,0H115.8c-12.7,0-24.2-8.3-27.5-20.5c-1.2-4.5-1.3-9.1-0.3-13.4c1.9-8.3,7.5-15.5,15.4-19.2c3.4-1.6,5.3-5.3,4.3-8.9
		c0-0.2-0.1-0.3-0.1-0.4c-1.4-4.3-6.2-6.3-10.2-4.4c-14.1,6.5-23.6,20.1-24.9,35.4c-0.1,1.2-0.2,2.4-0.2,3.6
		c0,23.6,19.2,42.9,42.9,42.9h339.6c0,0,0,0,0,0v15c0,0,0,0,0,0H115.2c-32,0-57.9-25.9-57.9-57.9c0-0.4,0-0.8,0-1.2
		c0.3-15.5,6.7-29.5,16.9-39.7C84.7,387.7,99.2,381.3,115.1,381.3z M454.7,467L454.7,467l-18.1,0c0,0,0,0,0,0v-55.7c0,0,0,0,0,0
		h18.1l0,0V467z"/>
</g>
<g>
	<path class="st2" d="M189.3,66.7c6.5-5,15.1-7.8,25.7-8.4s20.6-0.9,29.9-1.2h31.5c28.9,0.5,52.3,8.5,70.1,23.9
		c17.8,15.4,26.7,36.6,26.7,63.7c0,17.3-4.4,32.6-13.1,46s-20.4,22.9-35,28.5c4.2,5.8,21.2,28.5,51,68.1c4.5,5.8,6.8,11.7,6.8,17.5
		c0,6.9-2.9,12.8-8.8,17.7c-5.8,4.9-12.7,7.5-20.7,7.8c-3.7,0-7-0.8-10-2.4c-2.9-1.6-5.1-3.2-6.6-4.8c-1.5-1.6-3.7-4.1-6.6-7.6
		c-1.1-1.6-8.7-12.9-22.9-34.1c-14.2-21.1-25.3-37.1-33.3-48c-3.5,0-10.1-0.1-19.9-0.2c-9.8-0.1-16.5-0.2-19.9-0.2
		c0,6.9,0.1,18.8,0.4,35.6c0.3,16.9,0.4,28.2,0.4,34.1c0,16.7-7.7,25.6-23.1,26.7c-11.4,0.5-19.6-1.3-24.5-5.4
		c-4.9-4.1-7.4-11.6-7.4-22.5c0.5-49.4,0.7-107.7,0.4-174.8c0-4.2-0.1-10.7-0.4-19.3c-0.3-8.6-0.4-14.9-0.4-18.9
		C179.6,79,182.8,71.7,189.3,66.7z M234.2,104.9l0.4,82h32.3c14.9,0,27.1-3.4,36.8-10.2c9.7-6.8,14.7-17.1,14.9-30.9
		c0.3-13.5-3.7-23.8-11.9-30.9c-8.2-7-20.3-10.6-36.2-10.6C252.1,104.5,240,104.7,234.2,104.9z"/>
	<g>
		<path class="st3" d="M360.4,323.2c-1.5-1.6-3.7-4.1-6.6-7.6c-1.1-1.6-8.7-12.9-22.9-34.1c-14.2-21.1-25.3-37.1-33.3-48
			c-3.5,0-10.1-0.1-19.9-0.2c-9.8-0.1-16.5-0.2-19.9-0.2c0,0.1,0,0.2,0,0.2c7.8,0.1,13.2,0.2,16.2,0.2c8,10.9,19.1,26.9,33.3,48
			c14.2,21.1,21.8,32.5,22.9,34.1c2.9,3.5,5.1,6,6.6,7.6c1.5,1.6,3.7,3.2,6.6,4.8c2.9,1.6,6.2,2.4,10,2.4c4.7-0.2,8.9-1.1,12.9-2.9
			C363.6,326,361.7,324.6,360.4,323.2z"/>
		<path class="st3" d="M211,324.2c-4.9-4.1-7.4-11.6-7.4-22.5c0.5-49.4,0.7-107.7,0.4-174.8c0-4.2-0.1-10.7-0.4-19.3
			c-0.3-8.6-0.4-14.9-0.4-18.9c0-9.6,3.3-16.9,9.8-21.9c6.5-5,15.1-7.8,25.7-8.4s20.6-0.9,29.9-1.2h-23.6
			c-9.3,0.3-19.2,0.7-29.9,1.2c-10.6,0.5-19.2,3.3-25.7,8.4c-6.5,5-9.8,12.3-9.8,21.9c0,4,0.1,10.3,0.4,18.9
			c0.3,8.6,0.4,15.1,0.4,19.3c0.3,67.2,0.1,125.5-0.4,174.8c0,10.9,2.5,18.4,7.4,22.5c4.9,4.1,13.1,5.9,24.5,5.4
			c2.7-0.2,5.2-0.6,7.4-1.3C215.9,327.3,213.1,326,211,324.2z"/>
		<path class="st3" d="M337.3,145.9c0.2-13.5-3.5-23.8-11.2-30.9c-7.7-7-19-10.5-33.8-10.6c-7,0-13.1,0-18.2,0.1
			c14.1,0.5,25,4,32.6,10.5c8.2,7,12.2,17.3,11.9,30.9c-0.3,13.8-5.2,24.1-14.9,30.9c-9.7,6.8-22,10.2-36.8,10.2h22.1
			c13.9,0,25.4-3.4,34.4-10.2C332.4,170,337,159.7,337.3,145.9z"/>
	</g>
	<path class="st4" d="M189.3,66.7c6.5-5,15.1-7.8,25.7-8.4s20.6-0.9,29.9-1.2h31.5c28.9,0.5,52.3,8.5,70.1,23.9
		c17.8,15.4,26.7,36.6,26.7,63.7c0,17.3-4.4,32.6-13.1,46s-20.4,22.9-35,28.5c4.2,5.8,21.2,28.5,51,68.1c4.5,5.8,6.8,11.7,6.8,17.5
		c0,6.9-2.9,12.8-8.8,17.7c-5.8,4.9-12.7,7.5-20.7,7.8c-3.7,0-7-0.8-10-2.4c-2.9-1.6-5.1-3.2-6.6-4.8c-1.5-1.6-3.7-4.1-6.6-7.6
		c-1.1-1.6-8.7-12.9-22.9-34.1c-14.2-21.1-25.3-37.1-33.3-48c-3.5,0-10.1-0.1-19.9-0.2c-9.8-0.1-16.5-0.2-19.9-0.2
		c0,6.9,0.1,18.8,0.4,35.6c0.3,16.9,0.4,28.2,0.4,34.1c0,16.7-7.7,25.6-23.1,26.7c-11.4,0.5-19.6-1.3-24.5-5.4
		c-4.9-4.1-7.4-11.6-7.4-22.5c0.5-49.4,0.7-107.7,0.4-174.8c0-4.2-0.1-10.7-0.4-19.3c-0.3-8.6-0.4-14.9-0.4-18.9
		C179.6,79,182.8,71.7,189.3,66.7z M234.2,104.9l0.4,82h32.3c14.9,0,27.1-3.4,36.8-10.2c9.7-6.8,14.7-17.1,14.9-30.9
		c0.3-13.5-3.7-23.8-11.9-30.9c-8.2-7-20.3-10.6-36.2-10.6C252.1,104.5,240,104.7,234.2,104.9z"/>
</g>
<g>
	<path class="st5" d="M237,411.3v33.2c0,3.6-2.3,6.7-6.1,8.2c-3.8,1.5-8.1,1.1-11.3-1.2l-13.3-9.3c-2.2-1.6-5.4-1.6-7.6,0l-13.3,9.3
		c-3.3,2.3-7.5,2.8-11.3,1.2c-3.8-1.5-6.1-4.6-6.1-8.2v-33.2H237z"/>
	<path d="M249,411.3v33.2c0,7.5-5,14.2-13,17.4c-3.1,1.3-6.4,1.9-9.7,1.9c-5.1,0-10.2-1.5-14.4-4.5l-9.4-6.7l-9.4,6.7
		c-6.8,4.8-16,5.8-24.1,2.6c-2.7-1.1-5.1-2.6-7-4.3c-3.8-3.5-6-8.1-6-13.1v-33.2h12v33.2c0,3.6,2.3,6.7,6.1,8.2
		c3.8,1.5,8.1,1.1,11.3-1.2l13.3-9.3c2.2-1.6,5.4-1.6,7.6,0l13.3,9.3c3.3,2.3,7.5,2.8,11.3,1.2c3.8-1.5,6.1-4.6,6.1-8.2v-33.2H249z"
		/>
</g>
</svg>
